<mxfile host="app.diagrams.net" modified="2023-10-31T16:36:42.102Z" agent="Mozilla/5.0 (Windows NT 10.0; Win64; x64; rv:109.0) Gecko/20100101 Firefox/119.0" etag="2jV2Kcbv3Oqt2oR0X0V-" version="22.0.8" type="github">
  <diagram name="Page-1" id="wJgdJeT0TTyLGdxhHsTX">
    <mxGraphModel dx="1588" dy="1298" grid="1" gridSize="10" guides="1" tooltips="1" connect="1" arrows="1" fold="1" page="1" pageScale="1" pageWidth="1169" pageHeight="827" math="0" shadow="0">
      <root>
        <mxCell id="0" />
        <mxCell id="1" parent="0" />
        <mxCell id="6mEHmpXmrWAggm7oItha-66" value="" style="rounded=1;whiteSpace=wrap;html=1;" vertex="1" parent="1">
          <mxGeometry width="370" height="160" as="geometry" />
        </mxCell>
        <mxCell id="6mEHmpXmrWAggm7oItha-84" value="" style="strokeWidth=1;shadow=0;dashed=0;align=center;html=1;shape=mxgraph.mockup.forms.rrect;rSize=5;strokeColor=#999999;fillColor=#ffffff;" vertex="1" parent="1">
          <mxGeometry width="370" height="160" as="geometry" />
        </mxCell>
        <mxCell id="6mEHmpXmrWAggm7oItha-85" value="October 2014" style="strokeWidth=1;shadow=0;dashed=0;align=center;html=1;shape=mxgraph.mockup.forms.anchor;fontColor=#999999;" vertex="1" parent="6mEHmpXmrWAggm7oItha-84">
          <mxGeometry x="69.375" y="7.314285714285714" width="231.25" height="18.285714285714285" as="geometry" />
        </mxCell>
        <mxCell id="6mEHmpXmrWAggm7oItha-86" value="&lt;" style="strokeWidth=1;shadow=0;dashed=0;align=center;html=1;shape=mxgraph.mockup.forms.rrect;rSize=4;strokeColor=#999999;fontColor=#008cff;fontSize=19;fontStyle=1;" vertex="1" parent="6mEHmpXmrWAggm7oItha-84">
          <mxGeometry x="18.5" y="7.314285714285714" width="57.8125" height="18.285714285714285" as="geometry" />
        </mxCell>
        <mxCell id="6mEHmpXmrWAggm7oItha-87" value="&gt;" style="strokeWidth=1;shadow=0;dashed=0;align=center;html=1;shape=mxgraph.mockup.forms.rrect;rSize=4;strokeColor=#999999;fontColor=#008cff;fontSize=19;fontStyle=1;" vertex="1" parent="6mEHmpXmrWAggm7oItha-84">
          <mxGeometry x="293.6875" y="7.314285714285714" width="57.8125" height="18.285714285714285" as="geometry" />
        </mxCell>
        <mxCell id="6mEHmpXmrWAggm7oItha-88" value="Mo" style="strokeWidth=1;shadow=0;dashed=0;align=center;html=1;shape=mxgraph.mockup.forms.anchor;fontColor=#999999;" vertex="1" parent="6mEHmpXmrWAggm7oItha-84">
          <mxGeometry x="23.125" y="25.6" width="46.25" height="18.285714285714285" as="geometry" />
        </mxCell>
        <mxCell id="6mEHmpXmrWAggm7oItha-89" value="Tu" style="strokeWidth=1;shadow=0;dashed=0;align=center;html=1;shape=mxgraph.mockup.forms.anchor;fontColor=#999999;" vertex="1" parent="6mEHmpXmrWAggm7oItha-84">
          <mxGeometry x="69.375" y="25.6" width="46.25" height="18.285714285714285" as="geometry" />
        </mxCell>
        <mxCell id="6mEHmpXmrWAggm7oItha-90" value="We" style="strokeWidth=1;shadow=0;dashed=0;align=center;html=1;shape=mxgraph.mockup.forms.anchor;fontColor=#999999;" vertex="1" parent="6mEHmpXmrWAggm7oItha-84">
          <mxGeometry x="115.625" y="25.6" width="46.25" height="18.285714285714285" as="geometry" />
        </mxCell>
        <mxCell id="6mEHmpXmrWAggm7oItha-91" value="Th" style="strokeWidth=1;shadow=0;dashed=0;align=center;html=1;shape=mxgraph.mockup.forms.anchor;fontColor=#999999;" vertex="1" parent="6mEHmpXmrWAggm7oItha-84">
          <mxGeometry x="161.875" y="25.6" width="46.25" height="18.285714285714285" as="geometry" />
        </mxCell>
        <mxCell id="6mEHmpXmrWAggm7oItha-92" value="Fr" style="strokeWidth=1;shadow=0;dashed=0;align=center;html=1;shape=mxgraph.mockup.forms.anchor;fontColor=#999999;" vertex="1" parent="6mEHmpXmrWAggm7oItha-84">
          <mxGeometry x="208.125" y="25.6" width="46.25" height="18.285714285714285" as="geometry" />
        </mxCell>
        <mxCell id="6mEHmpXmrWAggm7oItha-93" value="Sa" style="strokeWidth=1;shadow=0;dashed=0;align=center;html=1;shape=mxgraph.mockup.forms.anchor;fontColor=#999999;" vertex="1" parent="6mEHmpXmrWAggm7oItha-84">
          <mxGeometry x="254.375" y="25.6" width="46.25" height="18.285714285714285" as="geometry" />
        </mxCell>
        <mxCell id="6mEHmpXmrWAggm7oItha-94" value="Su" style="strokeWidth=1;shadow=0;dashed=0;align=center;html=1;shape=mxgraph.mockup.forms.anchor;fontColor=#999999;" vertex="1" parent="6mEHmpXmrWAggm7oItha-84">
          <mxGeometry x="300.625" y="25.6" width="46.25" height="18.285714285714285" as="geometry" />
        </mxCell>
        <mxCell id="6mEHmpXmrWAggm7oItha-95" value="1" style="strokeWidth=1;shadow=0;dashed=0;align=center;html=1;shape=mxgraph.mockup.forms.rrect;rSize=0;strokeColor=#999999;fontColor=#999999;" vertex="1" parent="6mEHmpXmrWAggm7oItha-84">
          <mxGeometry x="23.125" y="43.88571428571429" width="46.25" height="18.285714285714285" as="geometry" />
        </mxCell>
        <mxCell id="6mEHmpXmrWAggm7oItha-96" value="2" style="strokeWidth=1;shadow=0;dashed=0;align=center;html=1;shape=mxgraph.mockup.forms.rrect;rSize=0;strokeColor=#999999;fontColor=#999999;" vertex="1" parent="6mEHmpXmrWAggm7oItha-84">
          <mxGeometry x="69.375" y="43.88571428571429" width="46.25" height="18.285714285714285" as="geometry" />
        </mxCell>
        <mxCell id="6mEHmpXmrWAggm7oItha-97" value="3" style="strokeWidth=1;shadow=0;dashed=0;align=center;html=1;shape=mxgraph.mockup.forms.rrect;rSize=0;strokeColor=#999999;fontColor=#999999;" vertex="1" parent="6mEHmpXmrWAggm7oItha-84">
          <mxGeometry x="115.625" y="43.88571428571429" width="46.25" height="18.285714285714285" as="geometry" />
        </mxCell>
        <mxCell id="6mEHmpXmrWAggm7oItha-98" value="4" style="strokeWidth=1;shadow=0;dashed=0;align=center;html=1;shape=mxgraph.mockup.forms.rrect;rSize=0;strokeColor=#999999;fontColor=#999999;" vertex="1" parent="6mEHmpXmrWAggm7oItha-84">
          <mxGeometry x="161.875" y="43.88571428571429" width="46.25" height="18.285714285714285" as="geometry" />
        </mxCell>
        <mxCell id="6mEHmpXmrWAggm7oItha-99" value="5" style="strokeWidth=1;shadow=0;dashed=0;align=center;html=1;shape=mxgraph.mockup.forms.rrect;rSize=0;strokeColor=#999999;fontColor=#999999;" vertex="1" parent="6mEHmpXmrWAggm7oItha-84">
          <mxGeometry x="208.125" y="43.88571428571429" width="46.25" height="18.285714285714285" as="geometry" />
        </mxCell>
        <mxCell id="6mEHmpXmrWAggm7oItha-100" value="6" style="strokeWidth=1;shadow=0;dashed=0;align=center;html=1;shape=mxgraph.mockup.forms.rrect;rSize=0;strokeColor=#999999;fontColor=#999999;" vertex="1" parent="6mEHmpXmrWAggm7oItha-84">
          <mxGeometry x="254.375" y="43.88571428571429" width="46.25" height="18.285714285714285" as="geometry" />
        </mxCell>
        <mxCell id="6mEHmpXmrWAggm7oItha-101" value="7" style="strokeWidth=1;shadow=0;dashed=0;align=center;html=1;shape=mxgraph.mockup.forms.rrect;rSize=0;strokeColor=#999999;fontColor=#999999;" vertex="1" parent="6mEHmpXmrWAggm7oItha-84">
          <mxGeometry x="300.625" y="43.88571428571429" width="46.25" height="18.285714285714285" as="geometry" />
        </mxCell>
        <mxCell id="6mEHmpXmrWAggm7oItha-102" value="8" style="strokeWidth=1;shadow=0;dashed=0;align=center;html=1;shape=mxgraph.mockup.forms.rrect;rSize=0;strokeColor=#999999;fontColor=#999999;" vertex="1" parent="6mEHmpXmrWAggm7oItha-84">
          <mxGeometry x="23.125" y="62.17142857142858" width="46.25" height="18.285714285714285" as="geometry" />
        </mxCell>
        <mxCell id="6mEHmpXmrWAggm7oItha-103" value="9" style="strokeWidth=1;shadow=0;dashed=0;align=center;html=1;shape=mxgraph.mockup.forms.rrect;rSize=0;strokeColor=#999999;fontColor=#999999;" vertex="1" parent="6mEHmpXmrWAggm7oItha-84">
          <mxGeometry x="69.375" y="62.17142857142858" width="46.25" height="18.285714285714285" as="geometry" />
        </mxCell>
        <mxCell id="6mEHmpXmrWAggm7oItha-104" value="10" style="strokeWidth=1;shadow=0;dashed=0;align=center;html=1;shape=mxgraph.mockup.forms.rrect;rSize=0;strokeColor=#999999;fontColor=#999999;" vertex="1" parent="6mEHmpXmrWAggm7oItha-84">
          <mxGeometry x="115.625" y="62.17142857142858" width="46.25" height="18.285714285714285" as="geometry" />
        </mxCell>
        <mxCell id="6mEHmpXmrWAggm7oItha-105" value="11" style="strokeWidth=1;shadow=0;dashed=0;align=center;html=1;shape=mxgraph.mockup.forms.rrect;rSize=0;strokeColor=#999999;fontColor=#999999;" vertex="1" parent="6mEHmpXmrWAggm7oItha-84">
          <mxGeometry x="161.875" y="62.17142857142858" width="46.25" height="18.285714285714285" as="geometry" />
        </mxCell>
        <mxCell id="6mEHmpXmrWAggm7oItha-106" value="12" style="strokeWidth=1;shadow=0;dashed=0;align=center;html=1;shape=mxgraph.mockup.forms.rrect;rSize=0;strokeColor=#999999;fontColor=#999999;" vertex="1" parent="6mEHmpXmrWAggm7oItha-84">
          <mxGeometry x="208.125" y="62.17142857142858" width="46.25" height="18.285714285714285" as="geometry" />
        </mxCell>
        <mxCell id="6mEHmpXmrWAggm7oItha-107" value="13" style="strokeWidth=1;shadow=0;dashed=0;align=center;html=1;shape=mxgraph.mockup.forms.rrect;rSize=0;strokeColor=#999999;fontColor=#999999;" vertex="1" parent="6mEHmpXmrWAggm7oItha-84">
          <mxGeometry x="254.375" y="62.17142857142858" width="46.25" height="18.285714285714285" as="geometry" />
        </mxCell>
        <mxCell id="6mEHmpXmrWAggm7oItha-108" value="14" style="strokeWidth=1;shadow=0;dashed=0;align=center;html=1;shape=mxgraph.mockup.forms.rrect;rSize=0;strokeColor=#999999;fontColor=#999999;" vertex="1" parent="6mEHmpXmrWAggm7oItha-84">
          <mxGeometry x="300.625" y="62.17142857142858" width="46.25" height="18.285714285714285" as="geometry" />
        </mxCell>
        <mxCell id="6mEHmpXmrWAggm7oItha-109" value="15" style="strokeWidth=1;shadow=0;dashed=0;align=center;html=1;shape=mxgraph.mockup.forms.rrect;rSize=0;strokeColor=#999999;fontColor=#999999;" vertex="1" parent="6mEHmpXmrWAggm7oItha-84">
          <mxGeometry x="23.125" y="80.45714285714286" width="46.25" height="18.285714285714285" as="geometry" />
        </mxCell>
        <mxCell id="6mEHmpXmrWAggm7oItha-110" value="16" style="strokeWidth=1;shadow=0;dashed=0;align=center;html=1;shape=mxgraph.mockup.forms.rrect;rSize=0;strokeColor=#999999;fontColor=#999999;" vertex="1" parent="6mEHmpXmrWAggm7oItha-84">
          <mxGeometry x="69.375" y="80.45714285714286" width="46.25" height="18.285714285714285" as="geometry" />
        </mxCell>
        <mxCell id="6mEHmpXmrWAggm7oItha-111" value="17" style="strokeWidth=1;shadow=0;dashed=0;align=center;html=1;shape=mxgraph.mockup.forms.rrect;rSize=0;strokeColor=#999999;fontColor=#999999;" vertex="1" parent="6mEHmpXmrWAggm7oItha-84">
          <mxGeometry x="115.625" y="80.45714285714286" width="46.25" height="18.285714285714285" as="geometry" />
        </mxCell>
        <mxCell id="6mEHmpXmrWAggm7oItha-112" value="18" style="strokeWidth=1;shadow=0;dashed=0;align=center;html=1;shape=mxgraph.mockup.forms.rrect;rSize=0;strokeColor=#999999;fontColor=#999999;" vertex="1" parent="6mEHmpXmrWAggm7oItha-84">
          <mxGeometry x="161.875" y="80.45714285714286" width="46.25" height="18.285714285714285" as="geometry" />
        </mxCell>
        <mxCell id="6mEHmpXmrWAggm7oItha-113" value="19" style="strokeWidth=1;shadow=0;dashed=0;align=center;html=1;shape=mxgraph.mockup.forms.rrect;rSize=0;strokeColor=#999999;fontColor=#999999;" vertex="1" parent="6mEHmpXmrWAggm7oItha-84">
          <mxGeometry x="208.125" y="80.45714285714286" width="46.25" height="18.285714285714285" as="geometry" />
        </mxCell>
        <mxCell id="6mEHmpXmrWAggm7oItha-114" value="20" style="strokeWidth=1;shadow=0;dashed=0;align=center;html=1;shape=mxgraph.mockup.forms.rrect;rSize=0;strokeColor=#999999;fontColor=#999999;" vertex="1" parent="6mEHmpXmrWAggm7oItha-84">
          <mxGeometry x="254.375" y="80.45714285714286" width="46.25" height="18.285714285714285" as="geometry" />
        </mxCell>
        <mxCell id="6mEHmpXmrWAggm7oItha-115" value="21" style="strokeWidth=1;shadow=0;dashed=0;align=center;html=1;shape=mxgraph.mockup.forms.rrect;rSize=0;strokeColor=#999999;fontColor=#999999;" vertex="1" parent="6mEHmpXmrWAggm7oItha-84">
          <mxGeometry x="300.625" y="80.45714285714286" width="46.25" height="18.285714285714285" as="geometry" />
        </mxCell>
        <mxCell id="6mEHmpXmrWAggm7oItha-116" value="22" style="strokeWidth=1;shadow=0;dashed=0;align=center;html=1;shape=mxgraph.mockup.forms.rrect;rSize=0;strokeColor=#999999;fontColor=#999999;" vertex="1" parent="6mEHmpXmrWAggm7oItha-84">
          <mxGeometry x="23.125" y="98.74285714285715" width="46.25" height="18.285714285714285" as="geometry" />
        </mxCell>
        <mxCell id="6mEHmpXmrWAggm7oItha-117" value="23" style="strokeWidth=1;shadow=0;dashed=0;align=center;html=1;shape=mxgraph.mockup.forms.rrect;rSize=0;strokeColor=#999999;fontColor=#999999;" vertex="1" parent="6mEHmpXmrWAggm7oItha-84">
          <mxGeometry x="69.375" y="98.74285714285715" width="46.25" height="18.285714285714285" as="geometry" />
        </mxCell>
        <mxCell id="6mEHmpXmrWAggm7oItha-118" value="25" style="strokeWidth=1;shadow=0;dashed=0;align=center;html=1;shape=mxgraph.mockup.forms.rrect;rSize=0;strokeColor=#999999;fontColor=#999999;" vertex="1" parent="6mEHmpXmrWAggm7oItha-84">
          <mxGeometry x="161.875" y="98.74285714285715" width="46.25" height="18.285714285714285" as="geometry" />
        </mxCell>
        <mxCell id="6mEHmpXmrWAggm7oItha-119" value="26" style="strokeWidth=1;shadow=0;dashed=0;align=center;html=1;shape=mxgraph.mockup.forms.rrect;rSize=0;strokeColor=#999999;fontColor=#999999;" vertex="1" parent="6mEHmpXmrWAggm7oItha-84">
          <mxGeometry x="208.125" y="98.74285714285715" width="46.25" height="18.285714285714285" as="geometry" />
        </mxCell>
        <mxCell id="6mEHmpXmrWAggm7oItha-120" value="27" style="strokeWidth=1;shadow=0;dashed=0;align=center;html=1;shape=mxgraph.mockup.forms.rrect;rSize=0;strokeColor=#999999;fontColor=#999999;" vertex="1" parent="6mEHmpXmrWAggm7oItha-84">
          <mxGeometry x="254.375" y="98.74285714285715" width="46.25" height="18.285714285714285" as="geometry" />
        </mxCell>
        <mxCell id="6mEHmpXmrWAggm7oItha-121" value="28" style="strokeWidth=1;shadow=0;dashed=0;align=center;html=1;shape=mxgraph.mockup.forms.rrect;rSize=0;strokeColor=#999999;fontColor=#999999;" vertex="1" parent="6mEHmpXmrWAggm7oItha-84">
          <mxGeometry x="300.625" y="98.74285714285715" width="46.25" height="18.285714285714285" as="geometry" />
        </mxCell>
        <mxCell id="6mEHmpXmrWAggm7oItha-122" value="29" style="strokeWidth=1;shadow=0;dashed=0;align=center;html=1;shape=mxgraph.mockup.forms.rrect;rSize=0;strokeColor=#999999;fontColor=#999999;" vertex="1" parent="6mEHmpXmrWAggm7oItha-84">
          <mxGeometry x="23.125" y="117.02857142857142" width="46.25" height="18.285714285714285" as="geometry" />
        </mxCell>
        <mxCell id="6mEHmpXmrWAggm7oItha-123" value="30" style="strokeWidth=1;shadow=0;dashed=0;align=center;html=1;shape=mxgraph.mockup.forms.rrect;rSize=0;strokeColor=#999999;fontColor=#999999;" vertex="1" parent="6mEHmpXmrWAggm7oItha-84">
          <mxGeometry x="69.375" y="117.02857142857142" width="46.25" height="18.285714285714285" as="geometry" />
        </mxCell>
        <mxCell id="6mEHmpXmrWAggm7oItha-124" value="31" style="strokeWidth=1;shadow=0;dashed=0;align=center;html=1;shape=mxgraph.mockup.forms.rrect;rSize=0;strokeColor=#999999;fontColor=#999999;" vertex="1" parent="6mEHmpXmrWAggm7oItha-84">
          <mxGeometry x="115.625" y="117.02857142857142" width="46.25" height="18.285714285714285" as="geometry" />
        </mxCell>
        <mxCell id="6mEHmpXmrWAggm7oItha-125" value="1" style="strokeWidth=1;shadow=0;dashed=0;align=center;html=1;shape=mxgraph.mockup.forms.rrect;rSize=0;strokeColor=#999999;fontColor=#999999;fillColor=#ddeeff;" vertex="1" parent="6mEHmpXmrWAggm7oItha-84">
          <mxGeometry x="161.875" y="117.02857142857142" width="46.25" height="18.285714285714285" as="geometry" />
        </mxCell>
        <mxCell id="6mEHmpXmrWAggm7oItha-126" value="2" style="strokeWidth=1;shadow=0;dashed=0;align=center;html=1;shape=mxgraph.mockup.forms.rrect;rSize=0;strokeColor=#999999;fontColor=#999999;fillColor=#ddeeff;" vertex="1" parent="6mEHmpXmrWAggm7oItha-84">
          <mxGeometry x="208.125" y="117.02857142857142" width="46.25" height="18.285714285714285" as="geometry" />
        </mxCell>
        <mxCell id="6mEHmpXmrWAggm7oItha-127" value="3" style="strokeWidth=1;shadow=0;dashed=0;align=center;html=1;shape=mxgraph.mockup.forms.rrect;rSize=0;strokeColor=#999999;fontColor=#999999;fillColor=#ddeeff;" vertex="1" parent="6mEHmpXmrWAggm7oItha-84">
          <mxGeometry x="254.375" y="117.02857142857142" width="46.25" height="18.285714285714285" as="geometry" />
        </mxCell>
        <mxCell id="6mEHmpXmrWAggm7oItha-128" value="4" style="strokeWidth=1;shadow=0;dashed=0;align=center;html=1;shape=mxgraph.mockup.forms.rrect;rSize=0;strokeColor=#999999;fontColor=#999999;fillColor=#ddeeff;" vertex="1" parent="6mEHmpXmrWAggm7oItha-84">
          <mxGeometry x="300.625" y="117.02857142857142" width="46.25" height="18.285714285714285" as="geometry" />
        </mxCell>
        <mxCell id="6mEHmpXmrWAggm7oItha-129" value="5" style="strokeWidth=1;shadow=0;dashed=0;align=center;html=1;shape=mxgraph.mockup.forms.rrect;rSize=0;strokeColor=#999999;fontColor=#999999;fillColor=#ddeeff;" vertex="1" parent="6mEHmpXmrWAggm7oItha-84">
          <mxGeometry x="23.125" y="135.31428571428572" width="46.25" height="18.285714285714285" as="geometry" />
        </mxCell>
        <mxCell id="6mEHmpXmrWAggm7oItha-130" value="6" style="strokeWidth=1;shadow=0;dashed=0;align=center;html=1;shape=mxgraph.mockup.forms.rrect;rSize=0;strokeColor=#999999;fontColor=#999999;fillColor=#ddeeff;" vertex="1" parent="6mEHmpXmrWAggm7oItha-84">
          <mxGeometry x="69.375" y="135.31428571428572" width="46.25" height="18.285714285714285" as="geometry" />
        </mxCell>
        <mxCell id="6mEHmpXmrWAggm7oItha-131" value="7" style="strokeWidth=1;shadow=0;dashed=0;align=center;html=1;shape=mxgraph.mockup.forms.rrect;rSize=0;strokeColor=#999999;fontColor=#999999;fillColor=#ddeeff;" vertex="1" parent="6mEHmpXmrWAggm7oItha-84">
          <mxGeometry x="115.625" y="135.31428571428572" width="46.25" height="18.285714285714285" as="geometry" />
        </mxCell>
        <mxCell id="6mEHmpXmrWAggm7oItha-132" value="8" style="strokeWidth=1;shadow=0;dashed=0;align=center;html=1;shape=mxgraph.mockup.forms.rrect;rSize=0;strokeColor=#999999;fontColor=#999999;fillColor=#ddeeff;" vertex="1" parent="6mEHmpXmrWAggm7oItha-84">
          <mxGeometry x="161.875" y="135.31428571428572" width="46.25" height="18.285714285714285" as="geometry" />
        </mxCell>
        <mxCell id="6mEHmpXmrWAggm7oItha-133" value="9" style="strokeWidth=1;shadow=0;dashed=0;align=center;html=1;shape=mxgraph.mockup.forms.rrect;rSize=0;strokeColor=#999999;fontColor=#999999;fillColor=#ddeeff;" vertex="1" parent="6mEHmpXmrWAggm7oItha-84">
          <mxGeometry x="208.125" y="135.31428571428572" width="46.25" height="18.285714285714285" as="geometry" />
        </mxCell>
        <mxCell id="6mEHmpXmrWAggm7oItha-134" value="10" style="strokeWidth=1;shadow=0;dashed=0;align=center;html=1;shape=mxgraph.mockup.forms.rrect;rSize=0;strokeColor=#999999;fontColor=#999999;fillColor=#ddeeff;" vertex="1" parent="6mEHmpXmrWAggm7oItha-84">
          <mxGeometry x="254.375" y="135.31428571428572" width="46.25" height="18.285714285714285" as="geometry" />
        </mxCell>
        <mxCell id="6mEHmpXmrWAggm7oItha-135" value="11" style="strokeWidth=1;shadow=0;dashed=0;align=center;html=1;shape=mxgraph.mockup.forms.rrect;rSize=0;strokeColor=#999999;fontColor=#999999;fillColor=#ddeeff;" vertex="1" parent="6mEHmpXmrWAggm7oItha-84">
          <mxGeometry x="300.625" y="135.31428571428572" width="46.25" height="18.285714285714285" as="geometry" />
        </mxCell>
        <mxCell id="6mEHmpXmrWAggm7oItha-136" value="24" style="strokeWidth=1;shadow=0;dashed=0;align=center;html=1;shape=mxgraph.mockup.forms.rrect;rSize=0;strokeColor=#ff0000;fontColor=#ffffff;strokeWidth=2;fillColor=#008cff;" vertex="1" parent="6mEHmpXmrWAggm7oItha-84">
          <mxGeometry x="115.625" y="98.74285714285715" width="46.25" height="18.285714285714285" as="geometry" />
        </mxCell>
        <mxCell id="6mEHmpXmrWAggm7oItha-50" value="" style="rounded=1;whiteSpace=wrap;html=1;" vertex="1" parent="1">
          <mxGeometry x="800" width="369" height="160" as="geometry" />
        </mxCell>
        <mxCell id="6mEHmpXmrWAggm7oItha-53" value="2314280" style="text;strokeColor=none;fillColor=none;html=1;fontSize=24;fontStyle=1;verticalAlign=middle;align=center;" vertex="1" parent="1">
          <mxGeometry x="870" y="60" width="100" height="40" as="geometry" />
        </mxCell>
        <mxCell id="6mEHmpXmrWAggm7oItha-61" value="" style="shape=sumEllipse;perimeter=ellipsePerimeter;html=1;backgroundOutline=1;" vertex="1" parent="1">
          <mxGeometry x="1020" y="18" width="100" height="103" as="geometry" />
        </mxCell>
        <mxCell id="6mEHmpXmrWAggm7oItha-62" value="&lt;div&gt;Ryan Beck&lt;/div&gt;" style="text;strokeColor=none;fillColor=none;html=1;fontSize=24;fontStyle=1;verticalAlign=middle;align=center;" vertex="1" parent="1">
          <mxGeometry x="870" y="18" width="100" height="40" as="geometry" />
        </mxCell>
        <mxCell id="6mEHmpXmrWAggm7oItha-63" value="&lt;font style=&quot;font-size: 18px;&quot;&gt;BSc (Hons) Computer Science&lt;/font&gt;" style="text;strokeColor=none;fillColor=none;html=1;fontSize=24;fontStyle=1;verticalAlign=middle;align=center;" vertex="1" parent="1">
          <mxGeometry x="880" y="121" width="220" height="33" as="geometry" />
        </mxCell>
        <mxCell id="6mEHmpXmrWAggm7oItha-67" value="" style="rounded=1;whiteSpace=wrap;html=1;" vertex="1" parent="1">
          <mxGeometry x="800" y="480" width="369" height="340" as="geometry" />
        </mxCell>
        <mxCell id="6mEHmpXmrWAggm7oItha-68" value="&lt;div&gt;Click photo&lt;/div&gt;&lt;div&gt;for settings&lt;/div&gt;&lt;div&gt;menu&lt;br&gt;&lt;/div&gt;" style="text;strokeColor=none;fillColor=none;html=1;fontSize=24;fontStyle=1;verticalAlign=middle;align=center;" vertex="1" parent="1">
          <mxGeometry x="1020" y="49.5" width="100" height="40" as="geometry" />
        </mxCell>
        <mxCell id="6mEHmpXmrWAggm7oItha-217" value="" style="rounded=1;whiteSpace=wrap;html=1;" vertex="1" parent="1">
          <mxGeometry y="170" width="370" height="160" as="geometry" />
        </mxCell>
        <mxCell id="6mEHmpXmrWAggm7oItha-218" value="" style="rounded=1;whiteSpace=wrap;html=1;" vertex="1" parent="1">
          <mxGeometry y="336" width="370" height="160" as="geometry" />
        </mxCell>
        <mxCell id="6mEHmpXmrWAggm7oItha-222" value="Announcements" style="text;strokeColor=none;fillColor=none;html=1;fontSize=24;fontStyle=1;verticalAlign=middle;align=center;" vertex="1" parent="1">
          <mxGeometry x="834.5" y="496" width="300" height="40" as="geometry" />
        </mxCell>
      </root>
    </mxGraphModel>
  </diagram>
</mxfile>
